<svg width="48" height="48" viewBox="0 0 48 48" fill="none" xmlns="http://www.w3.org/2000/svg">
<g clip-path="url(#clip0_964_18518)">
<path d="M17.2901 10.4766H9.59668C8.88467 10.4766 8.30762 11.0536 8.30762 11.7656C8.30762 12.4776 8.88467 13.0547 9.59668 13.0547H17.2901C18.0018 13.0547 18.5792 12.4776 18.5792 11.7656C18.5792 11.0536 18.0018 10.4766 17.2901 10.4766Z" fill="white"/>
<path d="M17.2901 15.6333H9.59668C8.88467 15.6333 8.30762 16.2104 8.30762 16.9224C8.30762 17.6344 8.88467 18.2114 9.59668 18.2114H17.2901C18.0018 18.2114 18.5792 17.6344 18.5792 16.9224C18.5792 16.2104 18.0018 15.6333 17.2901 15.6333Z" fill="white"/>
<path d="M17.2901 20.7896H9.59668C8.88467 20.7896 8.30762 21.3666 8.30762 22.0786C8.30762 22.7906 8.88467 23.3677 9.59668 23.3677H17.2901C18.0018 23.3677 18.5792 22.7906 18.5792 22.0786C18.5792 21.3666 18.0018 20.7896 17.2901 20.7896Z" fill="white"/>
<path d="M17.2901 25.9463H9.59668C8.88467 25.9463 8.30762 26.5233 8.30762 27.2354C8.30762 27.9474 8.88467 28.5244 9.59668 28.5244H17.2901C18.0018 28.5244 18.5792 27.9474 18.5792 27.2354C18.5792 26.5233 18.0018 25.9463 17.2901 25.9463Z" fill="white"/>
<path d="M17.2901 31.189H9.59668C8.88467 31.189 8.30762 31.7664 8.30762 32.478C8.30762 33.19 8.88467 33.7671 9.59668 33.7671H17.2901C18.0018 33.7671 18.5792 33.19 18.5792 32.478C18.5792 31.7664 18.0018 31.189 17.2901 31.189Z" fill="white"/>
<path d="M21.6191 13.0547H29.3126C30.0246 13.0547 30.6016 12.4776 30.6016 11.7656C30.6016 11.0536 30.0246 10.4766 29.3126 10.4766H21.6191C20.9075 10.4766 20.3301 11.0536 20.3301 11.7656C20.3301 12.4776 20.9075 13.0547 21.6191 13.0547Z" fill="white"/>
<path d="M21.6191 18.2114H29.3126C30.0246 18.2114 30.6016 17.6344 30.6016 16.9224C30.6016 16.2104 30.0246 15.6333 29.3126 15.6333H21.6191C20.9075 15.6333 20.3301 16.2104 20.3301 16.9224C20.3301 17.6344 20.9075 18.2114 21.6191 18.2114Z" fill="white"/>
<path d="M26.6136 22.0786C26.6136 21.3666 26.0365 20.7896 25.3245 20.7896H21.6191C20.9075 20.7896 20.3301 21.3666 20.3301 22.0786C20.3301 22.7906 20.9075 23.3677 21.6191 23.3677H25.3245C26.0365 23.3677 26.6136 22.7906 26.6136 22.0786Z" fill="white"/>
<path d="M38.8248 31.7333C38.2696 31.2879 37.4586 31.3768 37.0127 31.9321L33.6927 36.0712L31.6373 34.582C31.0609 34.1641 30.2546 34.293 29.837 34.8694C29.4194 35.4461 29.5483 36.2521 30.1246 36.6697L33.1738 38.8789C33.402 39.0441 33.6666 39.1243 33.9294 39.1243C34.3077 39.1243 34.6817 38.9581 34.9355 38.6416L39.0239 33.5454C39.4694 32.9902 39.3804 32.1788 38.8248 31.7333Z" fill="white"/>
<path d="M42.0831 27.7762C40.404 26.0675 38.2465 24.9906 35.9087 24.6734V7.1915C35.9087 4.32904 33.5797 2 30.7172 2H8.19183C5.32904 2 3 4.32904 3 7.1915V37.0524C3 39.9152 5.32904 42.2443 8.1915 42.2443H26.3085C28.3472 44.6391 31.2785 46 34.4498 46C40.3529 46 45.1554 41.1942 45.1554 35.287C45.1554 32.4591 44.0644 29.7917 42.0831 27.7762ZM5.57812 37.0524V7.1915C5.57812 5.7507 6.7507 4.57812 8.19183 4.57812H30.7172C32.1583 4.57812 33.3306 5.7507 33.3306 7.1915V24.6324C27.9514 25.1941 23.7442 29.7578 23.7442 35.287C23.7442 36.8195 24.0638 38.3012 24.6767 39.6658H8.19183C6.7507 39.6658 5.57812 38.4936 5.57812 37.0524ZM34.4498 43.4219C31.8753 43.4219 29.5087 42.2399 27.9561 40.1794C26.8873 38.7604 26.322 37.0689 26.322 35.287C26.322 30.8015 29.9683 27.1522 34.4498 27.1522C34.4921 27.1522 34.5347 27.1528 34.577 27.1535L34.5968 27.1538C36.7362 27.1918 38.7419 28.0545 40.2445 29.5833C41.7487 31.1137 42.5772 33.1396 42.5772 35.287C42.5772 39.7726 38.9313 43.4219 34.4498 43.4219Z" fill="white"/>
</g>
<defs>
<clipPath id="clip0_964_18518">
<rect width="42.1953" height="44" fill="white" transform="translate(3 2)"/>
</clipPath>
</defs>
</svg>
