<svg width="48" height="48" viewBox="0 0 48 48" fill="none" xmlns="http://www.w3.org/2000/svg">
<path d="M12.1214 16.9828C11.7862 16.6477 11.2414 16.6477 10.9063 16.9828C10.5703 17.3188 10.5703 17.8628 10.9063 18.198C11.2415 18.534 11.7863 18.534 12.1214 18.198C12.4573 17.8628 12.4573 17.3188 12.1214 16.9828Z" fill="#295C7A"/>
<path d="M23.7593 40.4759C24.1382 39.9627 24.343 39.3444 24.343 38.6942C24.343 37.0358 22.9938 35.6865 21.3353 35.6865H6.72639C5.92262 35.6865 5.16731 35.9993 4.59952 36.5673C4.03148 37.1352 3.71866 37.8905 3.71866 38.6942C3.71866 39.3602 3.9366 39.976 4.30433 40.4749C2.93595 41.1943 2 42.6295 2 44.2799V45.1393C2 45.6139 2.38483 45.9987 2.85938 45.9987H25.2023C25.6768 45.9987 26.0616 45.6139 26.0616 45.1393V44.2799C26.0616 42.6303 25.1266 41.1957 23.7593 40.4759ZM5.81477 37.7825C6.05805 37.5391 6.38187 37.4051 6.72639 37.4051H21.3353C22.046 37.4051 22.6242 37.9834 22.6242 38.6941C22.6242 39.0387 22.4902 39.3624 22.2468 39.6058C22.0035 39.8492 21.6797 39.9831 21.3352 39.9831H6.72639C6.0156 39.9831 5.43741 39.4049 5.43741 38.6942C5.43741 38.3496 5.57139 38.0258 5.81477 37.7825ZM3.71866 44.2799C3.71866 42.8584 4.87521 41.7019 6.2967 41.7019H6.72639H21.3353H21.7649C23.1864 41.7019 24.343 42.8584 24.343 44.2799H3.71866Z" fill="#295C7A"/>
<path d="M45.2003 38.1043C44.9085 37.652 44.5603 37.2521 44.1652 36.9155L40.1498 33.4133C40.1185 33.3662 40.0822 33.3216 40.0407 33.28C39.9709 33.2104 39.8919 33.156 39.8078 33.1152L37.3795 30.9973L26.1397 21.1926C26.5998 20.7116 26.8532 20.0826 26.8532 19.4138C26.8532 18.7247 26.585 18.0772 26.0975 17.5897C25.8848 17.3774 25.6432 17.2104 25.3849 17.0881L26.4248 16.0483C26.7154 16.1255 27.0141 16.1651 27.313 16.1651C28.193 16.165 29.0732 15.83 29.7432 15.16C30.3927 14.5106 30.7504 13.6474 30.7504 12.7293C30.7504 11.8112 30.3927 10.948 29.7433 10.2986L22.4516 3.0071C21.8022 2.35767 20.9389 2 20.0206 2C19.1027 2 18.2396 2.35767 17.5902 3.0071C16.6927 3.90463 16.3973 5.179 16.702 6.32558L6.32719 16.7003C6.0405 16.6241 5.74221 16.5839 5.43748 16.5839C4.51898 16.5839 3.65608 16.9413 3.00716 17.5901C1.66688 18.9304 1.66688 21.1112 3.00716 22.4516L10.2987 29.7432C10.9689 30.4133 11.8492 30.7484 12.7294 30.7484C13.6098 30.7484 14.49 30.4133 15.1603 29.7432C16.0578 28.8456 16.3533 27.5713 16.0485 26.4247L17.0862 25.3869C17.2109 25.6473 17.3801 25.8876 17.5903 26.0977C18.0772 26.5847 18.7246 26.8529 19.4135 26.8529C20.0817 26.8529 20.7104 26.6 21.1921 26.1404L33.1637 39.895C33.1967 39.9466 33.2352 39.9956 33.2802 40.0407C33.2956 40.056 33.3119 40.0701 33.3281 40.084L36.8955 44.1827C36.9842 44.2873 37.079 44.3903 37.1774 44.4887C38.1571 45.4681 39.4513 45.9997 40.81 45.9997C41.0495 45.9997 41.2912 45.9832 41.5333 45.9496C43.1514 45.7257 44.5499 44.7577 45.3699 43.2935C46.2682 41.6888 46.2013 39.6515 45.2003 38.1043ZM18.8057 4.22243C19.1304 3.89767 19.562 3.71875 20.0206 3.71875C20.4799 3.71875 20.9117 3.89767 21.2364 4.22243L28.528 11.514C28.8528 11.8387 29.0316 12.2704 29.0316 12.7294C29.0316 13.1884 28.8528 13.62 28.5279 13.9448C27.8581 14.6149 26.7679 14.6149 26.098 13.9448L18.8061 6.65291C18.8059 6.65274 18.8058 6.65266 18.8057 6.65248C18.1356 5.98252 18.1356 4.8924 18.8057 4.22243ZM13.9449 28.5279C13.2748 29.198 12.1842 29.1981 11.514 28.5279L4.22249 21.2363C3.55227 20.5661 3.55227 19.4757 4.22249 18.8054C4.54665 18.4812 4.97823 18.3026 5.43748 18.3026C5.89664 18.3026 6.32796 18.4811 6.65203 18.8051L13.9449 26.0979C14.615 26.7678 14.615 27.858 13.9449 28.5279ZM17.5631 22.4796L15.1602 24.8826L7.86787 17.5903L17.5902 7.86773L24.8825 15.16L22.4752 17.5674C22.4674 17.5748 22.4597 17.582 22.4515 17.5902L17.5927 22.449C17.5827 22.4589 17.573 22.4692 17.5631 22.4796ZM20.6316 24.2723C20.6299 24.2741 20.6282 24.2757 20.6265 24.2774L20.0213 24.8826C19.859 25.0448 19.6432 25.1342 19.4134 25.1342C19.1837 25.1342 18.9678 25.0448 18.8056 24.8825C18.6431 24.7201 18.5536 24.504 18.5536 24.2741C18.5536 24.0492 18.6395 23.8375 18.7953 23.6778L23.6766 18.7965C24.0111 18.4711 24.552 18.4752 24.8826 18.8054C25.0451 18.9678 25.1345 19.1839 25.1345 19.4138C25.1345 19.6435 25.0453 19.8589 24.8826 20.0213L24.2809 20.6229C24.2768 20.627 24.2727 20.6311 24.2686 20.6352L20.6316 24.2723ZM22.4112 24.9233L24.9228 22.4117L35.5569 31.6874L31.6764 35.5679L22.4112 24.9233ZM32.8075 36.8674L36.855 32.8198L38.1533 33.9522L33.9385 38.1671L32.8075 36.8674ZM43.8704 42.4539C43.3157 43.4441 42.3781 44.0977 41.2977 44.2472C40.2199 44.3964 39.1609 44.0414 38.3924 43.2733C38.3264 43.2073 38.2631 43.1385 38.2042 43.0687C38.2014 43.0654 38.1987 43.0621 38.1958 43.059L35.0694 39.4666L39.4515 35.0845L43.0393 38.2141C43.042 38.2165 43.0448 38.2188 43.0476 38.2212C43.3162 38.4495 43.5545 38.7238 43.7567 39.0371C44.4065 40.0413 44.4521 41.4145 43.8704 42.4539Z" fill="#295C7A"/>
<path d="M18.1981 10.906C17.8625 10.5704 17.3185 10.5704 16.9828 10.906L13.3367 14.5521C13.0011 14.8877 13.0011 15.4319 13.3367 15.7674C13.5045 15.9352 13.7244 16.0191 13.9443 16.0191C14.1642 16.0191 14.3841 15.9351 14.552 15.7674L18.1981 12.1212C18.5337 11.7857 18.5337 11.2417 18.1981 10.906Z" fill="#295C7A"/>
</svg>
