<svg width="48" height="48" viewBox="0 0 48 48" fill="none" xmlns="http://www.w3.org/2000/svg">
<path d="M26.3222 38.0898H22.6786C22.5162 38.0898 22.3605 38.0264 22.2457 37.9135C22.1309 37.8007 22.0664 37.6477 22.0664 37.4881V8.42925C22.0664 7.79482 22.3228 7.18636 22.7793 6.73775C23.2358 6.28914 23.8549 6.03711 24.5004 6.03711C25.1459 6.03711 25.765 6.28914 26.2215 6.73775C26.6779 7.18636 26.9344 7.79482 26.9344 8.42925V37.4887C26.9342 37.6482 26.8696 37.8011 26.7549 37.9137C26.6401 38.0265 26.4845 38.0898 26.3222 38.0898ZM23.2907 36.8865H25.71V8.42925C25.71 8.11395 25.5826 7.81156 25.3557 7.58861C25.1289 7.36565 24.8212 7.2404 24.5004 7.2404C24.1796 7.2404 23.8719 7.36565 23.645 7.58861C23.4182 7.81156 23.2907 8.11395 23.2907 8.42925V36.8865Z" fill="#295C7A"/>
<path d="M9.74643 14.103H7.64486C7.14624 14.0942 6.67107 13.8934 6.32162 13.5437C5.97217 13.194 5.77637 12.7235 5.77637 12.2334C5.77637 11.7433 5.97217 11.2727 6.32162 10.9231C6.67107 10.5734 7.14624 10.3726 7.64486 10.3638H9.4483C9.61066 10.3638 9.76637 10.4272 9.88117 10.54C9.99598 10.6528 10.0605 10.8058 10.0605 10.9654C10.0605 11.125 9.99598 11.278 9.88117 11.3908C9.76637 11.5037 9.61066 11.5671 9.4483 11.5671H7.64486C7.46857 11.5723 7.30129 11.6448 7.17847 11.7691C7.05564 11.8935 6.98695 12.06 6.98695 12.2334C6.98695 12.4067 7.05564 12.5732 7.17847 12.6976C7.30129 12.822 7.46857 12.8945 7.64486 12.8997H9.74643C9.90879 12.8997 10.0645 12.9631 10.1793 13.0759C10.2941 13.1888 10.3586 13.3418 10.3586 13.5013C10.3586 13.6609 10.2941 13.8139 10.1793 13.9268C10.0645 14.0396 9.90879 14.103 9.74643 14.103Z" fill="#295C7A"/>
<path d="M22.6785 14.103H13.4501C13.2877 14.103 13.132 14.0396 13.0172 13.9268C12.9024 13.8139 12.8379 13.6609 12.8379 13.5013C12.8379 13.3418 12.9024 13.1888 13.0172 13.0759C13.132 12.9631 13.2877 12.8997 13.4501 12.8997H22.0663V11.5671H13.7476C13.5852 11.5671 13.4295 11.5037 13.3147 11.3908C13.1999 11.278 13.1354 11.125 13.1354 10.9654C13.1354 10.8058 13.1999 10.6528 13.3147 10.54C13.4295 10.4272 13.5852 10.3638 13.7476 10.3638H22.6785C22.8408 10.3638 22.9966 10.4272 23.1114 10.54C23.2262 10.6528 23.2907 10.8058 23.2907 10.9654V13.5013C23.2907 13.6609 23.2262 13.8139 23.1114 13.9268C22.9966 14.0396 22.8408 14.103 22.6785 14.103Z" fill="#295C7A"/>
<path d="M35.4171 14.103H26.3221C26.1598 14.103 26.0041 14.0396 25.8893 13.9268C25.7745 13.8139 25.71 13.6609 25.71 13.5013V10.9654C25.71 10.8058 25.7745 10.6528 25.8893 10.54C26.0041 10.4272 26.1598 10.3638 26.3221 10.3638H35.1196C35.282 10.3638 35.4377 10.4272 35.5525 10.54C35.6673 10.6528 35.7318 10.8058 35.7318 10.9654C35.7318 11.125 35.6673 11.278 35.5525 11.3908C35.4377 11.5037 35.282 11.5671 35.1196 11.5671H26.9343V12.8997H35.4171C35.5795 12.8997 35.7352 12.9631 35.85 13.0759C35.9648 13.1888 36.0293 13.3418 36.0293 13.5013C36.0293 13.6609 35.9648 13.8139 35.85 13.9268C35.7352 14.0396 35.5795 14.103 35.4171 14.103Z" fill="#295C7A"/>
<path d="M41.3492 14.103H39.2538C39.0914 14.103 38.9357 14.0396 38.8209 13.9268C38.7061 13.8139 38.6416 13.6609 38.6416 13.5013C38.6416 13.3418 38.7061 13.1888 38.8209 13.0759C38.9357 12.9631 39.0914 12.8997 39.2538 12.8997H41.3492C41.5255 12.8945 41.6928 12.822 41.8156 12.6976C41.9384 12.5732 42.0071 12.4067 42.0071 12.2334C42.0071 12.06 41.9384 11.8935 41.8156 11.7691C41.6928 11.6448 41.5255 11.5723 41.3492 11.5671H39.5556C39.3932 11.5671 39.2375 11.5037 39.1227 11.3908C39.0079 11.278 38.9434 11.125 38.9434 10.9654C38.9434 10.8058 39.0079 10.6528 39.1227 10.54C39.2375 10.4272 39.3932 10.3638 39.5556 10.3638H41.3492C41.8478 10.3726 42.323 10.5734 42.6725 10.9231C43.0219 11.2727 43.2177 11.7433 43.2177 12.2334C43.2177 12.7235 43.0219 13.194 42.6725 13.5437C42.323 13.8934 41.8478 14.0942 41.3492 14.103Z" fill="#295C7A"/>
<path d="M32.2528 41.9618H16.7466C16.6537 41.9617 16.562 41.9409 16.4785 41.9008C16.395 41.8608 16.3218 41.8026 16.2646 41.7306C16.2074 41.6587 16.1676 41.5749 16.1482 41.4856C16.1288 41.3962 16.1304 41.3038 16.1528 41.2151C16.4052 40.0253 17.0552 38.9526 17.9994 38.1676C18.9437 37.3827 20.1278 36.9306 21.3636 36.8833H27.6359C28.8716 36.9306 30.0558 37.3827 31 38.1676C31.9442 38.9526 32.5942 40.0253 32.8466 41.2151C32.869 41.3038 32.8706 41.3962 32.8512 41.4856C32.8318 41.5749 32.792 41.6587 32.7348 41.7306C32.6776 41.8026 32.6045 41.8608 32.5209 41.9008C32.4374 41.9409 32.3457 41.9617 32.2528 41.9618ZM17.5932 40.7585H31.4062C31.1148 39.9983 30.6016 39.3395 29.9309 38.8648C29.2602 38.39 28.4618 38.1203 27.6359 38.0896H21.3636C20.5376 38.1203 19.7393 38.39 19.0685 38.8648C18.3978 39.3395 17.8846 39.9983 17.5932 40.7585Z" fill="#295C7A"/>
<path d="M33.9114 41.9621H15.0897C14.9273 41.9621 14.7716 41.8987 14.6568 41.7859C14.542 41.673 14.4775 41.52 14.4775 41.3604C14.4775 41.2009 14.542 41.0478 14.6568 40.935C14.7716 40.8222 14.9273 40.7588 15.0897 40.7588H33.9114C34.0738 40.7588 34.2295 40.8222 34.3443 40.935C34.4591 41.0478 34.5236 41.2009 34.5236 41.3604C34.5236 41.52 34.4591 41.673 34.3443 41.7859C34.2295 41.8987 34.0738 41.9621 33.9114 41.9621Z" fill="#295C7A"/>
<path d="M45.3135 29.1882H29.4944C29.392 29.1883 29.2911 29.1631 29.2011 29.1149C29.1111 29.0667 29.0349 28.9971 28.9794 28.9124C28.9239 28.8278 28.8909 28.7307 28.8835 28.6303C28.876 28.5298 28.8943 28.4292 28.9368 28.3375L35.6584 13.7933C35.6915 13.7212 35.7387 13.6562 35.7974 13.602C35.8561 13.5478 35.9252 13.5055 36.0005 13.4776C36.0759 13.4497 36.1561 13.4367 36.2366 13.4393C36.3171 13.4419 36.3962 13.4601 36.4696 13.4928C36.5429 13.5255 36.6089 13.5722 36.6639 13.63C36.7188 13.6879 36.7617 13.7558 36.7899 13.8299C36.818 13.9041 36.8311 13.983 36.8282 14.0621C36.8253 14.1412 36.8066 14.2189 36.7731 14.2909L30.4445 27.9849H44.3609L38.0379 14.2909C38.0047 14.2189 37.9862 14.1412 37.9836 14.0622C37.9809 13.9832 37.9941 13.9045 38.0224 13.8305C38.0507 13.7566 38.0936 13.6888 38.1486 13.6311C38.2035 13.5734 38.2695 13.5269 38.3427 13.4943C38.416 13.4617 38.495 13.4435 38.5754 13.4409C38.6558 13.4383 38.7359 13.4513 38.8111 13.4791C38.8864 13.507 38.9553 13.5491 39.014 13.6031C39.0727 13.6571 39.12 13.722 39.1532 13.7939L45.8681 28.3381C45.9103 28.4295 45.9285 28.5299 45.9212 28.63C45.9138 28.7301 45.8811 28.8268 45.8259 28.9113C45.7708 28.9958 45.695 29.0654 45.6055 29.1138C45.516 29.1622 45.4156 29.1877 45.3135 29.1882Z" fill="#295C7A"/>
<path d="M37.4668 36.8625H37.3394C32.4378 36.8625 28.8799 33.3826 28.8799 28.5875C28.8799 28.4279 28.9444 28.2749 29.0592 28.1621C29.174 28.0492 29.3297 27.9858 29.492 27.9858H45.3135C45.4759 27.9858 45.6316 28.0492 45.7464 28.1621C45.8612 28.2749 45.9257 28.4279 45.9257 28.5875C45.9257 33.3856 42.3678 36.8625 37.4668 36.8625ZM30.1256 29.1891C30.3987 33.0288 33.2875 35.6592 37.3394 35.6592H37.4668C41.5181 35.6592 44.4075 33.0288 44.6799 29.1891H30.1256Z" fill="#295C7A"/>
<path d="M37.4036 14.9608C36.8083 14.9609 36.2264 14.7875 35.7314 14.4626C35.2364 14.1376 34.8506 13.6757 34.6228 13.1352C34.3949 12.5948 34.3353 12 34.4514 11.4262C34.5674 10.8524 34.8541 10.3254 35.275 9.9117C35.6959 9.49802 36.2322 9.21632 36.816 9.10221C37.3998 8.98811 38.005 9.04673 38.5549 9.27067C39.1048 9.4946 39.5748 9.87379 39.9055 10.3603C40.2361 10.8468 40.4125 11.4187 40.4124 12.0037C40.4114 12.7877 40.0941 13.5393 39.53 14.0936C38.966 14.648 38.2013 14.9598 37.4036 14.9608ZM37.4036 10.2493C37.0505 10.2492 36.7053 10.352 36.4117 10.5447C36.118 10.7374 35.8891 11.0113 35.7539 11.3319C35.6187 11.6525 35.5833 12.0052 35.6521 12.3456C35.7209 12.686 35.8909 12.9986 36.1405 13.244C36.3901 13.4895 36.7082 13.6566 37.0545 13.7243C37.4008 13.7921 37.7597 13.7574 38.0859 13.6246C38.4122 13.4918 38.691 13.267 38.8872 12.9785C39.0833 12.6899 39.188 12.3507 39.188 12.0037C39.1876 11.5387 38.9994 11.0928 38.6649 10.7639C38.3304 10.435 37.8768 10.2499 37.4036 10.2493Z" fill="#295C7A"/>
<path d="M19.5046 29.1884H3.68622C3.58379 29.1883 3.48301 29.1631 3.3931 29.1148C3.3032 29.0666 3.22704 28.997 3.17161 28.9123C3.11618 28.8277 3.08325 28.7307 3.07583 28.6303C3.06841 28.5299 3.08674 28.4293 3.12914 28.3376L9.85197 13.7935C9.9191 13.6481 10.0422 13.5349 10.1943 13.4788C10.3464 13.4227 10.5149 13.4282 10.6628 13.4942C10.8107 13.5602 10.9259 13.6812 10.983 13.8306C11.0401 13.9801 11.0345 14.1457 10.9673 14.2911L4.63875 27.9851H18.5552L12.2321 14.2911C12.1969 14.2188 12.1768 14.1405 12.1728 14.0605C12.1689 13.9806 12.1812 13.9006 12.2091 13.8254C12.2369 13.7502 12.2798 13.6812 12.3352 13.6225C12.3905 13.5638 12.4572 13.5165 12.5314 13.4834C12.6056 13.4504 12.6857 13.4322 12.7671 13.4299C12.8485 13.4277 12.9296 13.4414 13.0055 13.4704C13.0815 13.4993 13.1508 13.5428 13.2094 13.5984C13.268 13.654 13.3147 13.7205 13.3468 13.7941L20.0623 28.3382C20.1046 28.4299 20.1228 28.5305 20.1153 28.6309C20.1078 28.7312 20.0748 28.8282 20.0193 28.9127C19.9638 28.9973 19.8876 29.0669 19.7977 29.115C19.7078 29.1632 19.607 29.1884 19.5046 29.1884Z" fill="#295C7A"/>
<path d="M11.6605 36.8625H11.5332C6.63214 36.8625 3.07422 33.3856 3.07422 28.5875C3.07422 28.4279 3.13871 28.2749 3.25352 28.1621C3.36832 28.0492 3.52403 27.9858 3.68639 27.9858H19.5079C19.6702 27.9858 19.8259 28.0492 19.9407 28.1621C20.0555 28.2749 20.12 28.4279 20.12 28.5875C20.12 33.3856 16.5621 36.8625 11.6605 36.8625ZM4.31998 29.1891C4.59239 33.0288 7.48183 35.6592 11.5332 35.6592H11.6605C15.7124 35.6592 18.6012 33.0288 18.8743 29.1891H4.31998Z" fill="#295C7A"/>
<path d="M11.5973 14.9608C11.0021 14.9608 10.4202 14.7873 9.9253 14.4623C9.43039 14.1373 9.04467 13.6753 8.81691 13.1348C8.58915 12.5943 8.52959 11.9996 8.64576 11.4259C8.76193 10.8521 9.04861 10.3251 9.46955 9.91149C9.89048 9.49787 10.4268 9.21622 11.0106 9.10217C11.5944 8.98811 12.1995 9.04677 12.7494 9.27072C13.2993 9.49468 13.7692 9.87386 14.0998 10.3603C14.4305 10.8468 14.6068 11.4187 14.6067 12.0037C14.6058 12.7878 14.2884 13.5395 13.7242 14.0938C13.16 14.6482 12.3951 14.96 11.5973 14.9608ZM11.5973 10.2493C11.2443 10.2493 10.8991 10.3522 10.6056 10.545C10.312 10.7377 10.0832 11.0117 9.94811 11.3323C9.813 11.6529 9.77765 12.0056 9.84653 12.346C9.91541 12.6863 10.0854 12.9989 10.3351 13.2442C10.5847 13.4896 10.9028 13.6567 11.2491 13.7244C11.5953 13.7921 11.9542 13.7573 12.2804 13.6246C12.6066 13.4918 12.8854 13.2669 13.0815 12.9784C13.2777 12.6899 13.3824 12.3507 13.3824 12.0037C13.3819 11.5386 13.1937 11.0926 12.859 10.7637C12.5244 10.4348 12.0706 10.2498 11.5973 10.2493Z" fill="#295C7A"/>
</svg>
