<svg width="43" height="36" viewBox="0 0 43 36" fill="none" xmlns="http://www.w3.org/2000/svg">
<path d="M23.3222 32.0898H19.6786C19.5162 32.0898 19.3605 32.0264 19.2457 31.9135C19.1309 31.8007 19.0664 31.6477 19.0664 31.4881V2.42925C19.0664 1.79482 19.3228 1.18636 19.7793 0.737751C20.2358 0.289138 20.8549 0.0371094 21.5004 0.0371094C22.1459 0.0371094 22.765 0.289138 23.2215 0.737751C23.6779 1.18636 23.9344 1.79482 23.9344 2.42925V31.4887C23.9342 31.6482 23.8696 31.8011 23.7549 31.9137C23.6401 32.0265 23.4845 32.0898 23.3222 32.0898ZM20.2907 30.8865H22.71V2.42925C22.71 2.11395 22.5826 1.81156 22.3557 1.58861C22.1289 1.36565 21.8212 1.2404 21.5004 1.2404C21.1796 1.2404 20.8719 1.36565 20.645 1.58861C20.4182 1.81156 20.2907 2.11395 20.2907 2.42925V30.8865Z" fill="#D0A144"/>
<path d="M6.74643 8.10299H4.64486C4.14624 8.0942 3.67107 7.89336 3.32162 7.5437C2.97217 7.19404 2.77637 6.7235 2.77637 6.23338C2.77637 5.74326 2.97217 5.27273 3.32162 4.92307C3.67107 4.5734 4.14624 4.37256 4.64486 4.36377H6.4483C6.61066 4.36377 6.76637 4.42716 6.88117 4.53999C6.99598 4.65282 7.06047 4.80585 7.06047 4.96541C7.06047 5.12498 6.99598 5.27801 6.88117 5.39084C6.76637 5.50367 6.61066 5.56706 6.4483 5.56706H4.64486C4.46857 5.57227 4.30129 5.64475 4.17847 5.76914C4.05564 5.89353 3.98695 6.06005 3.98695 6.23338C3.98695 6.40671 4.05564 6.57323 4.17847 6.69762C4.30129 6.82201 4.46857 6.8945 4.64486 6.8997H6.74643C6.90879 6.8997 7.0645 6.96309 7.1793 7.07592C7.2941 7.18875 7.3586 7.34178 7.3586 7.50135C7.3586 7.66091 7.2941 7.81395 7.1793 7.92678C7.0645 8.03961 6.90879 8.10299 6.74643 8.10299Z" fill="#D0A144"/>
<path d="M19.6785 8.10299H10.4501C10.2877 8.10299 10.132 8.03961 10.0172 7.92678C9.90239 7.81395 9.83789 7.66091 9.83789 7.50135C9.83789 7.34178 9.90239 7.18875 10.0172 7.07592C10.132 6.96309 10.2877 6.8997 10.4501 6.8997H19.0663V5.56706H10.7476C10.5852 5.56706 10.4295 5.50367 10.3147 5.39084C10.1999 5.27801 10.1354 5.12498 10.1354 4.96541C10.1354 4.80585 10.1999 4.65282 10.3147 4.53999C10.4295 4.42716 10.5852 4.36377 10.7476 4.36377H19.6785C19.8408 4.36377 19.9966 4.42716 20.1114 4.53999C20.2262 4.65282 20.2907 4.80585 20.2907 4.96541V7.50135C20.2907 7.66091 20.2262 7.81395 20.1114 7.92678C19.9966 8.03961 19.8408 8.10299 19.6785 8.10299Z" fill="#D0A144"/>
<path d="M32.4171 8.10299H23.3221C23.1598 8.10299 23.0041 8.03961 22.8893 7.92678C22.7745 7.81395 22.71 7.66091 22.71 7.50135V4.96541C22.71 4.80585 22.7745 4.65282 22.8893 4.53999C23.0041 4.42716 23.1598 4.36377 23.3221 4.36377H32.1196C32.282 4.36377 32.4377 4.42716 32.5525 4.53999C32.6673 4.65282 32.7318 4.80585 32.7318 4.96541C32.7318 5.12498 32.6673 5.27801 32.5525 5.39084C32.4377 5.50367 32.282 5.56706 32.1196 5.56706H23.9343V6.8997H32.4171C32.5795 6.8997 32.7352 6.96309 32.85 7.07592C32.9648 7.18875 33.0293 7.34178 33.0293 7.50135C33.0293 7.66091 32.9648 7.81395 32.85 7.92678C32.7352 8.03961 32.5795 8.10299 32.4171 8.10299Z" fill="#D0A144"/>
<path d="M38.3492 8.10299H36.2538C36.0914 8.10299 35.9357 8.03961 35.8209 7.92678C35.7061 7.81395 35.6416 7.66091 35.6416 7.50135C35.6416 7.34178 35.7061 7.18875 35.8209 7.07592C35.9357 6.96309 36.0914 6.8997 36.2538 6.8997H38.3492C38.5255 6.8945 38.6928 6.82201 38.8156 6.69762C38.9384 6.57323 39.0071 6.40671 39.0071 6.23338C39.0071 6.06005 38.9384 5.89353 38.8156 5.76914C38.6928 5.64475 38.5255 5.57227 38.3492 5.56706H36.5556C36.3932 5.56706 36.2375 5.50367 36.1227 5.39084C36.0079 5.27801 35.9434 5.12498 35.9434 4.96541C35.9434 4.80585 36.0079 4.65282 36.1227 4.53999C36.2375 4.42716 36.3932 4.36377 36.5556 4.36377H38.3492C38.8478 4.37256 39.323 4.5734 39.6725 4.92307C40.0219 5.27273 40.2177 5.74326 40.2177 6.23338C40.2177 6.7235 40.0219 7.19404 39.6725 7.5437C39.323 7.89336 38.8478 8.0942 38.3492 8.10299Z" fill="#D0A144"/>
<path d="M29.2528 35.9618H13.7466C13.6537 35.9617 13.562 35.9409 13.4785 35.9008C13.395 35.8608 13.3218 35.8026 13.2646 35.7306C13.2074 35.6587 13.1676 35.5749 13.1482 35.4856C13.1288 35.3962 13.1304 35.3038 13.1528 35.2151C13.4052 34.0253 14.0552 32.9526 14.9994 32.1676C15.9437 31.3827 17.1278 30.9306 18.3636 30.8833H24.6359C25.8716 30.9306 27.0558 31.3827 28 32.1676C28.9442 32.9526 29.5942 34.0253 29.8466 35.2151C29.869 35.3038 29.8706 35.3962 29.8512 35.4856C29.8318 35.5749 29.792 35.6587 29.7348 35.7306C29.6776 35.8026 29.6045 35.8608 29.5209 35.9008C29.4374 35.9409 29.3457 35.9617 29.2528 35.9618ZM14.5932 34.7585H28.4062C28.1148 33.9983 27.6016 33.3395 26.9309 32.8648C26.2602 32.39 25.4618 32.1203 24.6359 32.0896H18.3636C17.5376 32.1203 16.7393 32.39 16.0685 32.8648C15.3978 33.3395 14.8846 33.9983 14.5932 34.7585Z" fill="#D0A144"/>
<path d="M30.9114 35.9621H12.0897C11.9273 35.9621 11.7716 35.8987 11.6568 35.7859C11.542 35.673 11.4775 35.52 11.4775 35.3604C11.4775 35.2009 11.542 35.0478 11.6568 34.935C11.7716 34.8222 11.9273 34.7588 12.0897 34.7588H30.9114C31.0738 34.7588 31.2295 34.8222 31.3443 34.935C31.4591 35.0478 31.5236 35.2009 31.5236 35.3604C31.5236 35.52 31.4591 35.673 31.3443 35.7859C31.2295 35.8987 31.0738 35.9621 30.9114 35.9621Z" fill="#D0A144"/>
<path d="M42.3135 23.1882H26.4944C26.392 23.1883 26.2911 23.1631 26.2011 23.1149C26.1111 23.0667 26.0349 22.9971 25.9794 22.9124C25.9239 22.8278 25.8909 22.7307 25.8835 22.6303C25.876 22.5298 25.8943 22.4292 25.9368 22.3375L32.6584 7.79333C32.6915 7.72118 32.7387 7.65615 32.7974 7.60198C32.8561 7.5478 32.9252 7.50555 33.0005 7.47763C33.0759 7.44972 33.1561 7.43669 33.2366 7.43929C33.3171 7.4419 33.3962 7.46008 33.4696 7.49281C33.5429 7.52554 33.6089 7.57216 33.6639 7.63001C33.7188 7.68787 33.7617 7.75581 33.7899 7.82994C33.818 7.90408 33.8311 7.98296 33.8282 8.06205C33.8253 8.14115 33.8066 8.21892 33.7731 8.29089L27.4445 21.9849H41.3609L35.0379 8.29089C35.0047 8.21891 34.9862 8.14121 34.9836 8.06223C34.9809 7.98324 34.9941 7.90452 35.0224 7.83055C35.0507 7.75658 35.0936 7.68881 35.1486 7.63112C35.2035 7.57343 35.2695 7.52694 35.3427 7.49431C35.416 7.46168 35.495 7.44355 35.5754 7.44095C35.6558 7.43834 35.7359 7.45132 35.8111 7.47914C35.8864 7.50697 35.9553 7.54909 36.014 7.6031C36.0727 7.65711 36.12 7.72195 36.1532 7.79393L42.8681 22.3381C42.9103 22.4295 42.9285 22.5299 42.9212 22.63C42.9138 22.7301 42.8811 22.8268 42.8259 22.9113C42.7708 22.9958 42.695 23.0654 42.6055 23.1138C42.516 23.1622 42.4156 23.1877 42.3135 23.1882Z" fill="#D0A144"/>
<path d="M34.4668 30.8625H34.3394C29.4378 30.8625 25.8799 27.3826 25.8799 22.5875C25.8799 22.4279 25.9444 22.2749 26.0592 22.1621C26.174 22.0492 26.3297 21.9858 26.492 21.9858H42.3135C42.4759 21.9858 42.6316 22.0492 42.7464 22.1621C42.8612 22.2749 42.9257 22.4279 42.9257 22.5875C42.9257 27.3856 39.3678 30.8625 34.4668 30.8625ZM27.1256 23.1891C27.3987 27.0288 30.2875 29.6592 34.3394 29.6592H34.4668C38.5181 29.6592 41.4075 27.0288 41.6799 23.1891H27.1256Z" fill="#D0A144"/>
<path d="M34.4036 8.96078C33.8083 8.9609 33.2264 8.78752 32.7314 8.46257C32.2364 8.13763 31.8506 7.67571 31.6228 7.13523C31.3949 6.59476 31.3353 6.00002 31.4514 5.42623C31.5674 4.85244 31.8541 4.32537 32.275 3.9117C32.6959 3.49802 33.2322 3.21632 33.816 3.10221C34.3998 2.98811 35.005 3.04673 35.5549 3.27067C36.1048 3.4946 36.5748 3.87379 36.9055 4.36027C37.2361 4.84675 37.4125 5.41867 37.4124 6.0037C37.4114 6.78767 37.0941 7.53927 36.53 8.09362C35.966 8.64797 35.2013 8.95983 34.4036 8.96078ZM34.4036 4.2493C34.0505 4.24918 33.7053 4.35198 33.4117 4.54468C33.118 4.73738 32.8891 5.01134 32.7539 5.3319C32.6187 5.65247 32.5833 6.00524 32.6521 6.3456C32.7209 6.68596 32.8909 6.99862 33.1405 7.24403C33.3901 7.48945 33.7082 7.6566 34.0545 7.72434C34.4008 7.79209 34.7597 7.75738 35.0859 7.62461C35.4122 7.49184 35.691 7.26698 35.8872 6.97845C36.0833 6.68993 36.188 6.35071 36.188 6.0037C36.1876 5.53866 35.9994 5.09279 35.6649 4.76389C35.3304 4.435 34.8768 4.24994 34.4036 4.2493Z" fill="#D0A144"/>
<path d="M16.5046 23.1884H0.686217C0.583791 23.1883 0.483009 23.1631 0.393103 23.1148C0.303197 23.0666 0.227041 22.997 0.17161 22.9123C0.116179 22.8277 0.083246 22.7307 0.0758269 22.6303C0.0684078 22.5299 0.08674 22.4293 0.129144 22.3376L6.85197 7.79349C6.9191 7.64813 7.04224 7.53493 7.1943 7.47879C7.34636 7.42266 7.51488 7.42819 7.66279 7.49417C7.81069 7.56015 7.92587 7.68118 7.98299 7.83062C8.0401 7.98006 8.03447 8.14569 7.96734 8.29105L1.63875 21.9851H15.5552L9.23208 8.29105C9.19692 8.21885 9.17677 8.14047 9.17282 8.06052C9.16887 7.98056 9.18119 7.90064 9.20907 7.82543C9.23694 7.75021 9.27981 7.68122 9.33516 7.62249C9.3905 7.56377 9.45722 7.51649 9.53139 7.48342C9.60557 7.45035 9.68571 7.43217 9.76712 7.42992C9.84854 7.42768 9.92959 7.44143 10.0055 7.47036C10.0815 7.49929 10.1508 7.54283 10.2094 7.59842C10.268 7.65401 10.3147 7.72053 10.3468 7.79409L17.0623 22.3382C17.1046 22.4299 17.1228 22.5305 17.1153 22.6309C17.1078 22.7312 17.0748 22.8282 17.0193 22.9127C16.9638 22.9973 16.8876 23.0669 16.7977 23.115C16.7078 23.1632 16.607 23.1884 16.5046 23.1884Z" fill="#D0A144"/>
<path d="M8.66048 30.8625H8.53315C3.63214 30.8625 0.0742188 27.3856 0.0742188 22.5875C0.0742188 22.4279 0.138715 22.2749 0.253519 22.1621C0.368322 22.0492 0.52403 21.9858 0.686387 21.9858H16.5079C16.6702 21.9858 16.8259 22.0492 16.9407 22.1621C17.0555 22.2749 17.12 22.4279 17.12 22.5875C17.12 27.3856 13.5621 30.8625 8.66048 30.8625ZM1.31998 23.1891C1.59239 27.0288 4.48183 29.6592 8.53315 29.6592H8.66048C12.7124 29.6592 15.6012 27.0288 15.8743 23.1891H1.31998Z" fill="#D0A144"/>
<path d="M8.59731 8.96078C8.00208 8.96078 7.42021 8.7873 6.9253 8.46228C6.43039 8.13726 6.04467 7.6753 5.81691 7.13482C5.58915 6.59434 5.52959 5.99961 5.64576 5.42586C5.76193 4.85211 6.04861 4.3251 6.46955 3.91149C6.89048 3.49787 7.42677 3.21622 8.01058 3.10217C8.59439 2.98811 9.1995 3.04677 9.74939 3.27072C10.2993 3.49468 10.7692 3.87386 11.0998 4.36033C11.4305 4.8468 11.6068 5.4187 11.6067 6.0037C11.6058 6.78778 11.2884 7.53946 10.7242 8.09383C10.16 8.6482 9.3951 8.95999 8.59731 8.96078ZM8.59731 4.2493C8.24425 4.2493 7.89913 4.3522 7.60557 4.54497C7.31202 4.73775 7.08322 5.01175 6.94811 5.33232C6.813 5.6529 6.77765 6.00565 6.84653 6.34597C6.91541 6.68629 7.08542 6.99889 7.33507 7.24425C7.58471 7.4896 7.90279 7.65669 8.24906 7.72439C8.59533 7.79208 8.95425 7.75734 9.28043 7.62455C9.60661 7.49177 9.8854 7.2669 10.0815 6.97839C10.2777 6.68988 10.3824 6.35069 10.3824 6.0037C10.3819 5.53855 10.1937 5.09259 9.85901 4.76368C9.52435 4.43477 9.07059 4.24978 8.59731 4.2493Z" fill="#D0A144"/>
</svg>
