<svg width="44" height="44" viewBox="0 0 44 44" fill="none" xmlns="http://www.w3.org/2000/svg">
<path d="M10.1214 14.9828C9.78622 14.6477 9.24138 14.6477 8.90631 14.9828C8.57029 15.3188 8.57029 15.8628 8.90631 16.198C9.24146 16.534 9.78631 16.534 10.1214 16.198C10.4573 15.8628 10.4573 15.3188 10.1214 14.9828Z" fill="#D0A144"/>
<path d="M21.7593 38.4759C22.1382 37.9627 22.343 37.3444 22.343 36.6942C22.343 35.0358 20.9938 33.6865 19.3353 33.6865H4.72639C3.92262 33.6865 3.16731 33.9993 2.59952 34.5673C2.03148 35.1352 1.71866 35.8905 1.71866 36.6942C1.71866 37.3602 1.9366 37.976 2.30433 38.4749C0.935945 39.1943 0 40.6295 0 42.2799V43.1393C0 43.6139 0.384828 43.9987 0.859375 43.9987H23.2023C23.6768 43.9987 24.0616 43.6139 24.0616 43.1393V42.2799C24.0616 40.6303 23.1266 39.1957 21.7593 38.4759ZM3.81477 35.7825C4.05805 35.5391 4.38187 35.4051 4.72639 35.4051H19.3353C20.046 35.4051 20.6242 35.9834 20.6242 36.6941C20.6242 37.0387 20.4902 37.3624 20.2468 37.6058C20.0035 37.8492 19.6797 37.9831 19.3352 37.9831H4.72639C4.0156 37.9831 3.43741 37.4049 3.43741 36.6942C3.43741 36.3496 3.57139 36.0258 3.81477 35.7825ZM1.71866 42.2799C1.71866 40.8584 2.87521 39.7019 4.2967 39.7019H4.72639H19.3353H19.7649C21.1864 39.7019 22.343 40.8584 22.343 42.2799H1.71866Z" fill="#D0A144"/>
<path d="M43.2003 36.1043C42.9085 35.652 42.5603 35.2521 42.1652 34.9155L38.1498 31.4133C38.1185 31.3662 38.0822 31.3216 38.0407 31.28C37.9709 31.2104 37.8919 31.156 37.8078 31.1152L35.3795 28.9973L24.1397 19.1926C24.5998 18.7116 24.8532 18.0826 24.8532 17.4138C24.8532 16.7247 24.585 16.0772 24.0975 15.5897C23.8848 15.3774 23.6432 15.2104 23.3849 15.0881L24.4248 14.0483C24.7154 14.1255 25.0141 14.1651 25.313 14.1651C26.193 14.165 27.0732 13.83 27.7432 13.16C28.3927 12.5106 28.7504 11.6474 28.7504 10.7293C28.7504 9.81123 28.3927 8.94798 27.7433 8.29856L20.4516 1.0071C19.8022 0.357672 18.9389 0 18.0206 0C17.1027 0 16.2396 0.357672 15.5902 1.0071C14.6927 1.90463 14.3973 3.179 14.702 4.32558L4.32719 14.7003C4.0405 14.6241 3.74221 14.5839 3.43748 14.5839C2.51898 14.5839 1.65608 14.9413 1.00716 15.5901C-0.333117 16.9304 -0.333117 19.1112 1.00716 20.4516L8.2987 27.7432C8.96893 28.4133 9.84919 28.7484 10.7294 28.7484C11.6098 28.7484 12.49 28.4133 13.1603 27.7432C14.0578 26.8456 14.3533 25.5713 14.0485 24.4247L15.0862 23.3869C15.2109 23.6473 15.3801 23.8876 15.5903 24.0977C16.0772 24.5847 16.7246 24.8529 17.4135 24.8529C18.0817 24.8529 18.7104 24.6 19.1921 24.1404L31.1637 37.895C31.1967 37.9466 31.2352 37.9956 31.2802 38.0407C31.2956 38.056 31.3119 38.0701 31.3281 38.084L34.8955 42.1827C34.9842 42.2873 35.079 42.3903 35.1774 42.4887C36.1571 43.4681 37.4513 43.9997 38.81 43.9997C39.0495 43.9997 39.2912 43.9832 39.5333 43.9496C41.1514 43.7257 42.5499 42.7577 43.3699 41.2935C44.2682 39.6888 44.2013 37.6515 43.2003 36.1043ZM16.8057 2.22243C17.1304 1.89767 17.562 1.71875 18.0206 1.71875C18.4799 1.71875 18.9117 1.89767 19.2364 2.22243L26.528 9.51397C26.8528 9.83873 27.0316 10.2704 27.0316 10.7294C27.0316 11.1884 26.8528 11.62 26.5279 11.9448C25.8581 12.6149 24.7679 12.6149 24.098 11.9448L16.8061 4.65291C16.8059 4.65274 16.8058 4.65266 16.8057 4.65248C16.1356 3.98252 16.1356 2.8924 16.8057 2.22243ZM11.9449 26.5279C11.2748 27.198 10.1842 27.1981 9.51403 26.5279L2.22249 19.2363C1.55227 18.5661 1.55227 17.4757 2.22249 16.8054C2.54665 16.4812 2.97823 16.3026 3.43748 16.3026C3.89664 16.3026 4.32796 16.4811 4.65203 16.8051L11.9449 24.0979C12.615 24.7678 12.615 25.858 11.9449 26.5279ZM15.5631 20.4796L13.1602 22.8826L5.86787 15.5903L15.5902 5.86773L22.8825 13.16L20.4752 15.5674C20.4674 15.5748 20.4597 15.582 20.4515 15.5902L15.5927 20.449C15.5827 20.4589 15.573 20.4692 15.5631 20.4796ZM18.6316 22.2723C18.6299 22.2741 18.6282 22.2757 18.6265 22.2774L18.0213 22.8826C17.859 23.0448 17.6432 23.1342 17.4134 23.1342C17.1837 23.1342 16.9678 23.0448 16.8056 22.8825C16.6431 22.7201 16.5536 22.504 16.5536 22.2741C16.5536 22.0492 16.6395 21.8375 16.7953 21.6778L21.6766 16.7965C22.0111 16.4711 22.552 16.4752 22.8826 16.8054C23.0451 16.9678 23.1345 17.1839 23.1345 17.4138C23.1345 17.6435 23.0453 17.8589 22.8826 18.0213L22.2809 18.6229C22.2768 18.627 22.2727 18.6311 22.2686 18.6352L18.6316 22.2723ZM20.4112 22.9233L22.9228 20.4117L33.5569 29.6874L29.6764 33.5679L20.4112 22.9233ZM30.8075 34.8674L34.855 30.8198L36.1533 31.9522L31.9385 36.1671L30.8075 34.8674ZM41.8704 40.4539C41.3157 41.4441 40.3781 42.0977 39.2977 42.2472C38.2199 42.3964 37.1609 42.0414 36.3924 41.2733C36.3264 41.2073 36.2631 41.1385 36.2042 41.0687C36.2014 41.0654 36.1987 41.0621 36.1958 41.059L33.0694 37.4666L37.4515 33.0845L41.0393 36.2141C41.042 36.2165 41.0448 36.2188 41.0476 36.2212C41.3162 36.4495 41.5545 36.7238 41.7567 37.0371C42.4065 38.0413 42.4521 39.4145 41.8704 40.4539Z" fill="#D0A144"/>
<path d="M16.1981 8.90599C15.8625 8.5704 15.3185 8.5704 14.9828 8.90599L11.3367 12.5521C11.0011 12.8877 11.0011 13.4319 11.3367 13.7674C11.5045 13.9352 11.7244 14.0191 11.9443 14.0191C12.1642 14.0191 12.3841 13.9351 12.552 13.7674L16.1981 10.1212C16.5337 9.78573 16.5337 9.24166 16.1981 8.90599Z" fill="#D0A144"/>
</svg>
