<svg width="49" height="48" viewBox="0 0 49 48" fill="none" xmlns="http://www.w3.org/2000/svg">
<g clip-path="url(#clip0_965_120)">
<path d="M24.3637 23.05C28.0537 23.05 30.9237 20.0643 30.9237 16.4C30.9237 12.7357 27.917 9.88574 24.227 9.88574C20.537 9.88574 17.667 12.8715 17.667 16.4C17.667 20.0643 20.6737 23.05 24.3637 23.05ZM24.227 12.6C24.3637 12.6 24.3637 12.6 24.227 12.6C26.4137 12.6 28.1903 14.3643 28.1903 16.5357C28.1903 18.7072 26.4137 20.3357 24.227 20.3357C22.0403 20.3357 20.4003 18.5715 20.4003 16.5357C20.4003 14.3643 22.177 12.6 24.227 12.6Z" fill="#D0A144"/>
<path d="M44.5902 22.2356C41.9935 19.9284 38.5769 18.707 35.0235 18.8427H33.9302C33.6569 19.9284 33.2469 20.8784 32.7002 21.6927C33.5202 21.557 34.2035 21.557 35.0235 21.557C37.6202 21.4213 40.2169 22.2356 42.2669 23.7284V33.4999H45.0002V22.6427L44.5902 22.2356Z" fill="#D0A144"/>
<path d="M31.8801 10.1572C32.5635 8.52866 34.4768 7.71437 36.2535 8.39294C37.8935 9.07151 38.7135 10.9715 38.0301 12.7358C37.4835 13.9572 36.2535 14.7715 35.0235 14.7715C34.7501 14.7715 34.3401 14.7715 34.0668 14.6358C34.2035 15.3144 34.2035 15.9929 34.2035 16.5358V17.3501C34.4768 17.3501 34.7501 17.4858 35.0235 17.4858C38.4401 17.4858 41.1735 14.7715 41.1735 11.5144C41.1735 8.12151 38.4401 5.40723 35.1601 5.40723C32.9735 5.40723 31.0601 6.49294 29.9668 8.39294C30.6501 8.80008 31.3335 9.34294 31.8801 10.1572Z" fill="#D0A144"/>
<path d="M16.3 21.8285C15.7533 21.0142 15.3433 20.0642 15.07 18.9785H13.9767C10.4233 18.8428 7.00667 20.0642 4.41 22.2356L4 22.6428V33.4999H6.73333V23.7285C8.92 22.2356 11.38 21.4214 13.9767 21.5571C14.7967 21.5571 15.6167 21.6928 16.3 21.8285Z" fill="#D0A144"/>
<path d="M13.9766 17.3499C14.2499 17.3499 14.5233 17.3499 14.7966 17.2142V16.3999C14.7966 15.7214 14.7966 15.0428 14.9333 14.4999C14.6599 14.6357 14.2499 14.6357 13.9766 14.6357C12.1999 14.6357 10.6966 13.1428 10.6966 11.3785C10.6966 9.61422 12.1999 8.12137 13.9766 8.12137C15.3433 8.12137 16.5733 8.93565 17.1199 10.1571C17.6666 9.47851 18.4866 8.79994 19.1699 8.25708C17.3933 5.40708 13.7033 4.45708 10.8333 6.22137C7.96328 7.98565 7.00661 11.6499 8.78328 14.4999C9.87661 16.2642 11.7899 17.3499 13.9766 17.3499Z" fill="#D0A144"/>
<path d="M35.5697 30.3783L35.2964 29.9712C32.5631 26.9855 28.7364 25.2212 24.6364 25.3569C20.5364 25.2212 16.5731 26.9855 13.8397 29.9712L13.5664 30.3783V40.6926C13.5664 41.9141 14.5231 42.9998 15.8897 42.9998H33.3831C34.6131 42.9998 35.7064 41.9141 35.7064 40.6926V30.3783H35.5697ZM32.8364 40.2855H16.2997V31.3283C18.4864 29.1569 21.4931 28.0712 24.6364 28.0712C27.6431 27.9355 30.6497 29.1569 32.8364 31.3283V40.2855Z" fill="#D0A144"/>
</g>
<defs>
<clipPath id="clip0_965_120">
<rect width="41" height="38" fill="white" transform="translate(4 5)"/>
</clipPath>
</defs>
</svg>
