<svg width="24" height="27" viewBox="0 0 24 27" fill="none" xmlns="http://www.w3.org/2000/svg">
<g clip-path="url(#clip0_964_17693)">
<path d="M23.71 2.21646C23.575 2.07676 23.4045 1.98004 23.2185 1.93766C23.0325 1.89529 22.8388 1.90903 22.66 1.97726L0.660001 10.2973C0.470269 10.3721 0.306921 10.5052 0.191652 10.6789C0.0763829 10.8526 0.0146484 11.0586 0.0146484 11.2697C0.0146484 11.4807 0.0763829 11.6867 0.191652 11.8604C0.306921 12.0341 0.470269 12.1672 0.660001 12.2421L10.26 16.2357L14.1 26.2197C14.1721 26.4083 14.2958 26.5709 14.4557 26.6873C14.6157 26.8037 14.8049 26.8689 15 26.8749C15.2021 26.8705 15.3982 26.8026 15.5624 26.6801C15.7266 26.5576 15.8513 26.3862 15.92 26.1885L23.92 3.30846C23.9881 3.12446 24.0046 2.92411 23.9674 2.73076C23.9302 2.53742 23.8409 2.35905 23.71 2.21646ZM15 22.9229L12.21 15.6429L17 10.6613L15.59 9.19486L10.76 14.2181L3.8 11.2749L21.33 4.69166L15 22.9229Z" fill="#8EC2F2"/>
</g>
<defs>
<clipPath id="clip0_964_17693">
<rect width="24" height="26" fill="white" transform="translate(0 0.874756)"/>
</clipPath>
</defs>
</svg>
